<svg xmlns="http://www.w3.org/2000/svg" viewBox="0 0 1200 900" role="img" aria-labelledby="title desc">
  <title id="title">Sentinel service scope diagram</title>
  <desc id="desc">A schematic diagram of three structured oversight levels and the operational scope around a property.</desc>
  <defs>
    <linearGradient id="bg" x1="0" y1="0" x2="1" y2="1">
      <stop offset="0" stop-color="#fffaf2"/>
      <stop offset="1" stop-color="#e9f1ee"/>
    </linearGradient>
    <linearGradient id="navy" x1="0" y1="0" x2="1" y2="1">
      <stop offset="0" stop-color="#10263f"/>
      <stop offset="1" stop-color="#2f6f73"/>
    </linearGradient>
    <filter id="shadow" x="-20%" y="-20%" width="140%" height="140%">
      <feDropShadow dx="0" dy="26" stdDeviation="28" flood-color="#10263f" flood-opacity=".16"/>
    </filter>
  </defs>
  <rect width="1200" height="900" fill="url(#bg)"/>
  <path d="M930 0c-36 88-29 161 22 219 55 64 67 135 36 214-30 78-19 145 35 202 54 57 78 121 72 192l105 73V0Z" fill="#2f6f73" opacity=".09"/>
  <path d="M0 672c126-64 241-71 346-20 111 54 225 44 343-30 96-60 206-75 330-45v323H0Z" fill="#b8664a" opacity=".08"/>

  <g filter="url(#shadow)">
    <rect x="100" y="92" width="1000" height="704" rx="38" fill="#fffaf2" stroke="#d8cdbc" stroke-width="2"/>
    <rect x="100" y="92" width="1000" height="126" rx="38" fill="#10263f"/>
    <rect x="100" y="178" width="1000" height="40" fill="#10263f"/>
    <circle cx="198" cy="156" r="34" fill="#b8664a"/>
    <rect x="262" y="132" width="284" height="18" rx="9" fill="#fffaf2" opacity=".88"/>
    <rect x="262" y="166" width="422" height="12" rx="6" fill="#fffaf2" opacity=".42"/>
    <rect x="772" y="132" width="156" height="16" rx="8" fill="#fffaf2" opacity=".58"/>
    <rect x="772" y="166" width="96" height="12" rx="6" fill="#fffaf2" opacity=".32"/>

    <g transform="translate(154 282)">
      <rect width="252" height="420" rx="26" fill="#f2eee6" stroke="#d8cdbc" stroke-width="2"/>
      <circle cx="58" cy="62" r="28" fill="#10263f"/>
      <path d="M42 63h36M58 45v36" stroke="#fffaf2" stroke-width="6" stroke-linecap="square"/>
      <path d="M64 138h126v126H64Z" fill="none" stroke="#10263f" stroke-width="8"/>
      <path d="M64 184h126M112 138v126" stroke="#10263f" stroke-width="5" opacity=".55"/>
      <circle cx="190" cy="184" r="8" fill="#b8664a"/>
      <rect x="52" y="318" width="156" height="12" rx="6" fill="#10263f" opacity=".45"/>
      <rect x="52" y="350" width="118" height="12" rx="6" fill="#10263f" opacity=".26"/>
    </g>

    <g transform="translate(474 258)">
      <rect width="252" height="468" rx="26" fill="#fffaf2" stroke="#d8cdbc" stroke-width="2"/>
      <circle cx="58" cy="62" r="28" fill="#2f6f73"/>
      <path d="M40 62h54M68 62v42M82 104H56" stroke="#fffaf2" stroke-width="6" stroke-linecap="square" stroke-linejoin="miter"/>
      <rect x="52" y="134" width="148" height="170" rx="12" fill="#e9f1ee" stroke="#2f6f73" stroke-width="6"/>
      <path d="M82 178h92M82 218h92M82 258h56" stroke="#2f6f73" stroke-width="8" stroke-linecap="square" opacity=".7"/>
      <circle cx="194" cy="258" r="16" fill="#b8664a" opacity=".82"/>
      <path d="M52 356c35-24 68-24 100 0s64 24 96 0" fill="none" stroke="#10263f" stroke-width="7" opacity=".56"/>
      <rect x="52" y="392" width="164" height="12" rx="6" fill="#10263f" opacity=".36"/>
      <rect x="52" y="424" width="112" height="12" rx="6" fill="#10263f" opacity=".24"/>
    </g>

    <g transform="translate(794 282)">
      <rect width="252" height="420" rx="26" fill="#f2eee6" stroke="#d8cdbc" stroke-width="2"/>
      <circle cx="58" cy="62" r="28" fill="#b8664a"/>
      <path d="M44 64l18 18 48-54" fill="none" stroke="#fffaf2" stroke-width="7" stroke-linecap="square" stroke-linejoin="miter"/>
      <rect x="54" y="138" width="148" height="172" rx="6" fill="#fffaf2" stroke="#10263f" stroke-width="6"/>
      <rect x="78" y="166" width="72" height="10" rx="5" fill="#10263f" opacity=".58"/>
      <rect x="78" y="204" width="96" height="8" rx="4" fill="#10263f" opacity=".36"/>
      <rect x="78" y="232" width="78" height="8" rx="4" fill="#10263f" opacity=".26"/>
      <rect x="78" y="260" width="104" height="8" rx="4" fill="#10263f" opacity=".34"/>
      <path d="M54 352h148M54 384h118" stroke="#2f6f73" stroke-width="9" stroke-linecap="square" opacity=".55"/>
    </g>

    <path d="M406 492h68M726 492h68" stroke="url(#navy)" stroke-width="8" stroke-linecap="square" opacity=".58"/>
    <circle cx="438" cy="492" r="12" fill="#b8664a"/>
    <circle cx="760" cy="492" r="12" fill="#2f6f73"/>
  </g>
</svg>
